<svg width="902" height="445" viewBox="0 0 902 445" fill="none" xmlns="http://www.w3.org/2000/svg">
<path opacity="0.2" d="M564.84 14.3027H539.992V39.1507H564.84V14.3027Z" fill="#34E89E"/>
<path d="M598.805 14.3027H573.957V39.1507H598.805V14.3027Z" fill="#34E89E"/>
<path opacity="0.2" d="M632.76 14.3027H607.912V39.1507H632.76V14.3027Z" fill="#34E89E"/>
<path opacity="0.4" d="M564.84 45.7747H539.992V70.6227H564.84V45.7747Z" fill="#34E89E"/>
<path opacity="0.2" d="M598.805 45.7747H573.957V70.6227H598.805V45.7747Z" fill="#34E89E"/>
<path opacity="0.2" d="M632.76 45.7747H607.912V70.6227H632.76V45.7747Z" fill="#34E89E"/>
<path opacity="0.2" d="M666.725 45.7747H641.877V70.6227H666.725V45.7747Z" fill="#34E89E"/>
<path d="M564.84 77.2559H539.992V102.104H564.84V77.2559Z" fill="#34E89E"/>
<path opacity="0.2" d="M598.805 77.2559H573.957V102.104H598.805V77.2559Z" fill="#34E89E"/>
<path opacity="0.2" d="M632.76 77.2559H607.912V102.104H632.76V77.2559Z" fill="#34E89E"/>
<path opacity="0.2" d="M666.725 77.2559H641.877V102.104H666.725V77.2559Z" fill="#34E89E"/>
<path opacity="0.2" d="M564.84 108.727H539.992V133.575H564.84V108.727Z" fill="#34E89E"/>
<path opacity="0.2" d="M598.805 108.727H573.957V133.575H598.805V108.727Z" fill="#34E89E"/>
<path opacity="0.2" d="M632.76 108.727H607.912V133.575H632.76V108.727Z" fill="#34E89E"/>
<path opacity="0.2" d="M666.725 108.727H641.877V133.575H666.725V108.727Z" fill="#34E89E"/>
<path opacity="0.2" d="M598.805 140.208H573.957V165.056H598.805V140.208Z" fill="#34E89E"/>
<path opacity="0.2" d="M632.76 140.208H607.912V165.056H632.76V140.208Z" fill="#34E89E"/>
<path opacity="0.2" d="M666.725 140.208H641.877V165.056H666.725V140.208Z" fill="#34E89E"/>
<path d="M609.256 231.623C628.014 231.623 643.221 216.416 643.221 197.658C643.221 178.899 628.014 163.693 609.256 163.693C590.498 163.693 575.291 178.899 575.291 197.658C575.291 216.416 590.498 231.623 609.256 231.623Z" fill="#767D9F"/>
<path d="M607.493 154.449C610.882 169.241 613.759 184.144 616.123 199.158C616.834 203.619 617.467 208.324 615.85 212.541C614.496 216.057 611.74 218.804 609.577 221.882C607.414 224.96 605.777 228.905 607.093 232.431C608.409 235.957 612.246 237.886 615.908 238.879C626.389 241.704 637.561 239.648 647.993 236.59C652.716 235.374 657.245 233.498 661.445 231.018C665.867 228.213 669.491 224.318 672.822 220.304C688.022 201.865 697.982 179.735 707.352 157.741C701.332 158.288 695.268 157.396 689.661 155.136C684.054 152.877 679.065 149.316 675.106 144.748C671.268 140.238 668.453 133.956 670.616 128.443C664.275 131.92 656.746 132.154 649.916 134.531C645.681 136.148 641.605 138.153 637.74 140.521C633.077 143.215 628.441 145.962 623.831 148.761C618.558 151.936 613.62 154.761 607.493 154.449Z" fill="#FBBEBE"/>
<path d="M678.53 179.95C672.579 191.531 664.83 202.665 653.78 209.561C642.73 216.457 627.841 218.327 616.766 211.509C611.311 208.178 607.181 203.109 602.418 198.846C597.655 194.583 591.704 190.927 585.304 191.482C578.252 192.096 572.729 197.599 568.004 202.869C560.835 210.876 553.91 219.223 548.835 228.701C539.095 246.916 536.786 268.208 537.215 288.858C537.644 309.508 540.634 330.05 540.702 350.7C540.802 376.1 536.494 401.3 532.14 426.325C572.173 421.396 612.255 432.169 652.376 436.25C678.052 438.89 703.922 438.831 729.735 438.763C734.274 438.763 739.105 438.646 742.885 436.133C745.195 434.447 747.063 432.228 748.33 429.665C751.895 423.09 753.33 415.59 754.32 408.178C756.843 389.457 756.92 370.502 756.989 351.605C757.164 305.825 757.33 259.879 751.515 214.459C750.083 203.287 748.252 192.059 743.966 181.604C739.68 171.149 732.691 161.54 722.908 155.935C716.625 152.335 702.063 146.058 694.661 149.691C686.352 153.748 682.514 172.196 678.53 179.95Z" fill="#767D9F"/>
<path d="M681.492 309.225C679.982 280.978 673.836 250.831 686.917 225.759C690.131 219.603 678.599 211.918 682.164 205.959C686.515 198.691 689.814 190.843 691.964 182.65C692.704 179.835 693.298 176.85 692.597 174.03C691.297 168.877 686.207 165.809 681.882 162.673C677.109 159.205 674.655 148.637 673.116 142.919C671.577 137.201 685.36 144.088 690.902 142.052C698.597 139.237 708.376 141.01 716.052 143.864C720.338 145.442 724.994 145.578 729.562 145.695C738.436 145.929 747.338 146.153 756.144 145.062C760.099 144.562 764.063 143.815 768.037 144.039C778.177 144.614 786.992 151.549 792.992 159.75C798.992 167.951 802.81 177.507 807.729 186.39C811.829 193.79 816.719 200.79 820.216 208.49C823.316 215.308 825.271 222.633 827.21 229.919L832.21 248.611C833.084 251.285 833.499 254.087 833.437 256.9C833.184 259.89 831.859 262.676 830.515 265.335C825.432 275.191 819.338 284.491 812.33 293.086C801.82 305.973 789.06 317.593 782.816 333.022C780.381 339.032 779.027 345.422 777.79 351.792C772.802 377.271 769.258 403.012 767.173 428.892C755.792 423.625 743.861 419.636 731.601 416.999C725.489 415.691 719.311 414.716 713.094 414.077C707.649 413.512 700.626 414.584 695.444 413.103C686.775 410.639 685.82 395.979 684.505 388.303C682.405 376.079 681.982 363.64 681.905 351.289C681.803 337.238 682.238 323.222 681.492 309.225Z" fill="#4C4981"/>
<path d="M491.114 256.403C495.214 279.78 499.734 303.225 508.647 325.19C508.423 325.404 508.199 325.599 507.975 325.79C507.186 326.462 506.368 327.095 505.511 327.738C503.511 329.138 501.323 330.329 499.667 332.16C499.04 332.86 498.545 333.669 498.206 334.546C497.9 335.231 497.742 335.973 497.742 336.723C497.742 337.473 497.9 338.215 498.206 338.9C493.56 340.955 488.164 340.322 482.953 340.127C478.463 339.961 474.109 340.127 470.505 342.591C465.498 346.039 463.989 352.663 463.18 358.682C462.881 360.876 462.625 363.074 462.411 365.276C462.203 367.321 462.034 369.373 461.904 371.432C461.463 378.241 461.401 385.07 461.719 391.887C461.771 393.133 461.838 394.38 461.919 395.627C446.003 395.247 431.5 386.948 417.775 378.883C414.639 377.042 411.405 375.104 409.369 372.065C407.497 369.081 406.705 365.545 407.125 362.048C407.144 361.551 407.196 361.056 407.281 360.567C407.717 357.676 408.466 354.841 409.512 352.112C413.806 340.486 420.136 329.718 428.204 320.312C431.691 316.241 435.616 312.257 437.243 307.143C437.954 304.912 438.217 302.543 438.938 300.325C442.172 290.701 453.838 286.153 457.838 276.812C458.812 274.581 459.26 272.137 460.468 269.994C461.556 268.213 462.958 266.645 464.608 265.367C465.319 264.773 466.059 264.198 466.79 263.623C473.634 258.259 480.228 252.592 486.573 246.623C487.755 245.512 488.924 244.389 490.08 243.253C489.926 247.661 490.275 252.073 491.122 256.403H491.114Z" fill="#4C4981"/>
<path d="M589.268 187.264C587.868 188.745 586.346 190.137 584.856 191.521L584.456 191.881L582.878 193.342C580.014 195.814 577.535 198.699 575.524 201.904L575.358 202.177C570.39 211.07 572.231 222.018 573.614 232.119C575.33 244.706 576.101 257.404 575.923 270.107C575.67 287.64 573.605 305.056 573.566 322.569C573.566 326.543 573.654 330.514 573.829 334.482C574.111 340.94 574.598 347.388 575.183 353.836C575.816 360.908 576.576 367.969 577.283 375.036C577.848 380.5 578.383 385.955 578.832 391.41C579.056 394.235 579.27 397.05 579.446 399.874C579.646 403.186 579.816 406.507 579.914 409.819C579.982 411.919 580.021 414.019 580.021 416.119V419.694C580.021 421.973 579.959 424.246 579.836 426.512C579.706 429.427 579.508 432.349 579.242 435.278C578.942 438.463 578.404 441.94 576.164 444.178C576.028 444.314 575.882 444.441 575.735 444.568L572.579 444.178C550.824 441.573 528.86 441.181 507.026 443.009C507.503 439.717 507.942 436.434 508.37 433.132C508.565 431.574 508.76 430.005 508.945 428.437C509.159 426.645 509.364 424.852 509.559 423.06C509.783 421.112 509.991 419.164 510.182 417.216C510.689 412.196 511.133 407.174 511.516 402.148C512.081 394.814 512.51 387.47 512.802 380.115C512.945 376.601 513.055 373.085 513.133 369.566C513.244 365.202 513.296 360.835 513.289 356.466C513.289 352.219 513.253 347.966 513.182 343.706C513.182 342.306 513.124 340.901 513.007 339.506C512.923 338.251 512.751 337.005 512.491 335.775C511.768 332.939 510.79 330.174 509.569 327.515C509.355 327.008 509.15 326.541 508.946 326.005C508.829 325.742 508.722 325.469 508.615 325.205C514.225 320.205 518.215 313.516 522.057 306.932C528.281 296.325 534.651 285.25 535.694 272.996C536.737 260.742 530.648 246.979 518.94 243.239C515.755 242.265 512.385 241.992 509.102 241.418C506.002 240.873 499.547 239.636 495.962 237.418C494.014 239.418 492.066 241.382 490.118 243.311C490.236 240.368 490.956 237.481 492.232 234.827L493.615 234.895C493.502 234.583 493.449 234.252 493.459 233.921C493.459 232.879 494.18 231.7 495.719 230.395C500.307 226.495 507.524 225.632 510.419 220.362C511.627 218.17 511.831 215.562 512.805 213.262C515.605 206.707 523.627 204.291 528.458 199.051C533.289 193.811 534.497 186.388 538.403 180.544C541.321 176.276 545.368 172.904 550.092 170.804C550.482 170.619 550.881 170.434 551.28 170.268C559.365 166.81 568.969 166.021 577.345 166.041C580.598 166.041 589.034 166.141 593.163 167.785C593.832 168.024 594.445 168.398 594.963 168.885C599.369 173.676 592.521 183.797 589.268 187.264Z" fill="#4C4981"/>
<path d="M492.565 234.145C500.089 231.88 507.989 231.133 515.805 231.947C523.62 232.761 531.196 235.121 538.092 238.889C545.105 242.789 551.397 248.22 555.255 255.234C561.055 265.754 560.797 278.434 560.388 290.446C560.188 296.456 559.92 302.68 557.271 308.076C554.203 314.32 548.417 318.605 542.514 322.112C538.816 324.471 534.765 326.224 530.514 327.304C523.968 328.726 517.17 327.518 510.575 326.33C503.406 325.005 495.711 323.408 490.734 318.07C487.812 314.97 486.214 310.95 484.634 307.015C482.367 301.333 480.095 295.658 477.816 289.989C473.871 280.141 472.537 271.95 477.748 262.355C480.115 257.982 483.008 253.891 485.348 249.488C486.516 247.246 490.705 234.722 492.565 234.145Z" fill="#4C4981"/>
<path d="M901.937 402.528V431.652C881.956 439.952 860.523 444.19 838.887 444.12H576.197C576.061 444.256 575.915 444.383 575.768 444.51L572.612 444.12H105.333C66.128 444.12 29.796 433.542 0 415.52V371.057L224.732 345.118H224.907L355.78 356.198L389.648 359.12L407.239 360.61L443.649 363.698L462.38 365.286L489.653 367.604L493.491 367.925L513.147 369.591L539.816 371.783L577.316 374.958L639.83 380.267L683.808 383.998L756.024 390.125L769.758 391.284L771.239 391.411L772.525 391.518L790.662 393.057L810.571 394.752L812.879 394.947L901.937 402.528Z" fill="#504F60"/>
<path d="M637.966 401.457L356.335 353.388L345.416 408.607L474.516 424.065L514.267 429.042L623.613 407.506L637.966 401.457Z" fill="#9C9CA1"/>
<path d="M492.185 426.276L633.285 399.753C633.991 399.618 634.718 399.64 635.414 399.819C636.11 399.998 636.757 400.329 637.31 400.788C637.864 401.246 638.308 401.822 638.613 402.473C638.917 403.124 639.074 403.834 639.071 404.553C639.074 405.693 638.676 406.797 637.948 407.674C637.22 408.551 636.208 409.145 635.087 409.353L497.287 435.153L492.185 426.276Z" fill="#9C9CA1"/>
<path d="M553.395 342.868C557.788 342.459 562.239 341.768 566.195 339.819C571.065 337.394 574.854 333.219 579.364 330.137C589.28 323.319 602.546 322.403 613.913 326.319C625.28 330.235 634.767 338.619 641.413 348.634C645.825 355.306 649.137 363.819 646.02 371.183C644.951 373.434 643.602 375.541 642.007 377.456L633.883 388.073C632.34 390.305 630.483 392.302 628.37 394.005C625.331 396.216 621.552 397.122 617.831 397.667C607.944 399.109 597.883 398.29 587.918 398.953C570.804 400.093 554.089 405.606 536.936 405.421C527.079 405.314 517.348 403.327 507.715 401.34L465.081 392.574C457.659 391.054 449.272 388.834 445.775 382.103C444.207 379.074 443.915 375.567 443.73 372.158C443.223 362.768 443.73 352.326 450.237 345.558C456.354 339.207 466.026 337.201 473.332 332.506C482.274 326.749 485.225 328.606 494.654 332.935C513.049 341.265 533.288 344.688 553.399 342.87L553.395 342.868Z" fill="#FBBEBE"/>
<path opacity="0.05" d="M545.395 337.868C549.788 337.459 554.239 336.768 558.195 334.819C563.065 332.394 566.854 328.219 571.364 325.137C581.28 318.319 594.546 317.403 605.913 321.319C617.28 325.235 626.767 333.619 633.413 343.634C637.825 350.306 641.137 358.819 638.02 366.183C636.951 368.434 635.602 370.541 634.007 372.456L625.883 383.073C624.34 385.305 622.483 387.302 620.37 389.005C617.331 391.216 613.552 392.122 609.831 392.667C599.944 394.109 589.883 393.29 579.918 393.953C562.804 395.093 546.089 400.606 528.936 400.421C519.079 400.314 509.348 398.327 499.715 396.34L457.081 387.574C449.659 386.054 441.272 383.834 437.775 377.103C436.207 374.074 435.915 370.567 435.73 367.158C435.223 357.768 435.73 347.326 442.237 340.558C448.354 334.207 458.026 332.201 465.332 327.506C474.274 321.749 477.225 323.606 486.654 327.935C505.049 336.265 525.288 339.688 545.399 337.87L545.395 337.868Z" fill="black"/>
<path d="M724.602 329.514C712.641 334.141 700.611 338.787 688.085 341.543C667.085 346.17 645.11 345.443 624.275 350.728C613.268 353.533 602.33 358.053 591.021 357.137C585.966 356.728 581.086 355.189 576.167 354.02C548.533 347.202 517.12 349.413 494.678 366.946C487.003 372.936 480.72 380.407 475.022 388.375C473.803 390.096 472.979 392.065 472.609 394.141C472.239 396.218 472.332 398.35 472.882 400.386C473.432 402.423 474.425 404.312 475.79 405.92C477.156 407.528 478.859 408.814 480.779 409.687C489.506 413.701 498.855 416.194 508.422 417.061C521.211 418.191 534.059 416.379 546.78 414.567C565.657 411.888 584.544 409.2 603.372 406.19C610.132 405.109 616.892 403.99 623.691 403.132C672.617 396.947 722.43 404.466 771.483 399.304C776.441 398.778 781.483 398.096 785.996 395.983C797.412 390.626 803.061 376.502 800.704 364.093C798.347 351.684 789.249 341.369 778.304 335.037C769.128 329.709 759.232 327.556 749.014 325.297C739.525 323.086 733.739 326.008 724.602 329.514Z" fill="#FBBEBE"/>
<path opacity="0.1" d="M829.536 255.331C834.936 262.403 836.082 271.89 835.497 280.744C834.912 289.598 832.809 298.355 832.497 307.244C832.068 319.444 835.01 331.595 834.513 343.751C834.162 352.251 832.146 360.592 829.76 368.751C826.945 378.384 822.873 388.738 813.98 393.365C802.175 399.511 777.414 396.053 764.995 400.865C766.125 393.823 776.956 383.624 778.086 376.582C778.865 371.712 779.654 366.705 778.817 361.825C777.746 355.601 774.093 350.078 769.758 345.48C762.858 338.165 753.858 332.662 743.975 330.869C734.092 329.076 709.883 330.548 701.975 336.791C701.001 330.343 719.118 324.128 725.488 322.736C728.663 322.025 732.306 322.424 734.849 320.408C739.719 316.59 736.183 308.982 736.417 302.875C736.602 298.005 739.446 293.544 740.017 288.675C740.991 280.883 735.907 272.944 737.903 265.298C738.643 262.473 740.289 259.989 741.429 257.298C744.897 249.067 743.377 239.677 741.529 230.931C740.38 225.437 739.259 219.242 742.318 214.557C745.152 210.184 753.198 225.757 758.351 225.038C775.368 222.652 790.767 210.038 804.511 220.363C811.511 225.623 812.43 231.077 815.225 238.587C817.945 245.746 824.987 249.409 829.536 255.331Z" fill="black"/>
<path d="M832.458 255.331C837.858 262.403 839.004 271.89 838.419 280.744C837.834 289.598 835.731 298.355 835.419 307.244C834.99 319.444 837.932 331.595 837.435 343.751C837.084 352.251 835.068 360.592 832.682 368.751C829.867 378.384 825.796 388.738 816.902 393.365C805.097 399.511 780.336 396.053 767.917 400.865C769.047 393.823 779.878 383.624 781.008 376.582C781.787 371.712 782.576 366.705 781.739 361.825C780.668 355.601 777.015 350.078 772.68 345.48C765.788 338.173 756.788 332.673 746.898 330.873C737.008 329.073 712.806 330.552 704.898 336.795C703.924 330.347 722.041 324.132 728.411 322.74C731.586 322.029 735.229 322.428 737.772 320.412C742.642 316.594 739.106 308.986 739.34 302.879C739.525 298.009 742.369 293.548 742.94 288.679C743.914 280.887 738.83 272.948 740.826 265.302C741.566 262.477 743.212 259.993 744.352 257.302C747.82 249.071 746.3 239.681 744.452 230.935C743.303 225.441 742.182 219.246 745.241 214.561C748.075 210.188 753.618 208.532 758.77 207.801C776.021 205.468 793.501 209.977 807.47 220.366C814.47 225.626 815.389 231.08 818.185 238.59C820.867 245.746 827.909 249.408 832.458 255.331Z" fill="#4C4981"/>
<path d="M187.962 209.18L240.921 404.905C241.571 407.303 242.936 409.446 244.834 411.049C246.733 412.652 249.075 413.638 251.548 413.876L489.916 436.776C491.859 436.963 493.818 436.682 495.63 435.956C497.442 435.23 499.053 434.081 500.33 432.604C501.606 431.127 502.51 429.366 502.965 427.468C503.421 425.57 503.415 423.591 502.948 421.696L444.954 185.608C444.264 182.802 442.601 180.331 440.261 178.635C437.922 176.939 435.057 176.128 432.175 176.345L198.803 193.796C197.011 193.935 195.272 194.468 193.71 195.356C192.148 196.245 190.801 197.467 189.765 198.936C188.73 200.405 188.032 202.085 187.72 203.855C187.408 205.625 187.491 207.441 187.962 209.176V209.18Z" fill="#9C9CA1"/>
<path d="M660.481 247.373C674.952 247.373 686.683 235.489 686.683 220.83C686.683 206.171 674.952 194.287 660.481 194.287C646.01 194.287 634.279 206.171 634.279 220.83C634.279 235.489 646.01 247.373 660.481 247.373Z" fill="white"/>
<path d="M681.997 172.411C681.997 172.411 687.52 188.833 671.224 195.739L669.14 199.381L679.348 209.453C679.348 209.453 691.933 186.495 690.569 178.342C690.569 178.342 688.621 170.062 681.997 172.411Z" fill="white"/>
<path d="M663.491 247.373C677.446 247.373 688.758 236.06 688.758 222.106C688.758 208.151 677.446 196.839 663.491 196.839C649.537 196.839 638.224 208.151 638.224 222.106C638.224 236.06 649.537 247.373 663.491 247.373Z" fill="#34E89E"/>
<path d="M690.696 182.072L686.683 175.449L680.839 174.621C682.086 152.812 676.427 146.315 676.427 146.315L675.112 146.188L669.385 145.633L658.611 134.451V131.276C673.748 133.076 682.111 140.266 686.634 148.692C694.621 163.478 690.696 182.072 690.696 182.072Z" fill="#34E89E"/>
<path opacity="0.1" d="M675.16 142.176V146.189L669.433 145.634L658.66 134.452C658.66 134.452 675.326 138.183 675.16 142.176Z" fill="black" stroke="#4C4981" stroke-miterlimit="10"/>
<path opacity="0.1" d="M690.696 182.073L686.683 175.45V148.731C694.621 163.478 690.696 182.073 690.696 182.073Z" fill="black" stroke="#4C4981" stroke-miterlimit="10"/>
<path d="M616.804 232.495C623.527 228.614 623.237 215.527 616.158 203.265C609.078 191.003 597.89 184.209 591.167 188.09C584.445 191.971 584.734 205.058 591.814 217.32C598.893 229.582 610.082 236.376 616.804 232.495Z" fill="white"/>
<path d="M607.775 208.148C614.856 220.411 623.545 228.603 616.824 232.499C610.103 236.395 590.524 234.447 583.443 222.174C576.362 209.901 582.79 192.953 589.511 189.056C596.232 185.159 600.684 195.855 607.775 208.148Z" fill="#34E89E"/>
<path opacity="0.1" d="M670.826 119.802C670.826 158.988 644.011 196.752 604.826 196.752C586.006 196.752 567.958 189.276 554.65 175.968C541.343 162.661 533.867 144.612 533.867 125.793C533.867 106.973 541.343 88.9245 554.65 75.6171C567.958 62.3097 586.006 54.8337 604.826 54.8337C644.01 54.8717 670.826 80.6057 670.826 119.802Z" fill="black"/>
<path d="M604.824 194.842C644.014 194.842 675.783 163.072 675.783 123.883C675.783 84.6933 644.014 52.9238 604.824 52.9238C565.634 52.9238 533.865 84.6933 533.865 123.883C533.865 163.072 565.634 194.842 604.824 194.842Z" fill="#FBBEBE"/>
<path d="M598.59 92.4408C607.035 95.5478 612.032 104.276 619.61 109.141C630.324 115.959 644.273 114.196 656.51 110.826C663.328 108.966 670.458 106.696 677.169 108.761C678.156 109.198 679.245 109.353 680.315 109.209C681.776 108.79 682.497 107.173 682.974 105.732C691.274 80.9907 687.542 52.9677 675.016 30.0777C671.782 24.1777 667.905 18.4667 662.568 14.3667C658.36 11.1427 653.412 9.02873 648.425 7.22673C639.311 3.95351 629.885 1.62629 620.295 0.281757C618.601 -0.0260964 616.872 -0.0820494 615.162 0.115741C612.815 0.495741 610.711 1.76174 608.616 2.89174C599.647 7.69976 589.7 10.4014 579.531 10.7917C565.894 11.3077 550.31 8.09175 539.8 16.8407C527.137 27.3307 530.293 47.7957 522.082 62.0407C516.647 71.4597 506.166 78.2977 504.442 89.0217C503.993 92.2997 504.202 95.6343 505.056 98.8307C509.069 115.331 525.043 128.111 542.07 128.413C544.685 128.612 547.303 128.076 549.629 126.864C551.153 125.824 552.498 124.544 553.613 123.075C564.762 109.857 577.522 84.6867 598.59 92.4408Z" fill="#444053"/>
<path opacity="0.1" d="M682.972 98.5477C682.495 99.9897 681.772 101.607 680.313 102.025C679.243 102.169 678.154 102.014 677.167 101.577C670.456 99.5117 663.287 101.777 656.517 103.642C644.273 107.012 630.296 108.814 619.617 101.957C612.029 97.0867 607.042 88.3197 598.587 85.2567C577.518 77.4647 564.758 102.673 553.576 115.881C552.461 117.35 551.116 118.63 549.592 119.67C547.266 120.882 544.648 121.418 542.033 121.219C525.065 120.919 509.081 108.138 505.019 91.6367C504.795 90.6627 504.6 89.6887 504.454 88.7147C504.462 88.8019 504.445 88.8895 504.405 88.9677C503.956 92.2456 504.165 95.5802 505.019 98.7767C509.032 115.277 525.019 128.057 542.033 128.359C544.648 128.558 547.266 128.022 549.592 126.81C551.116 125.77 552.461 124.49 553.576 123.021C564.758 109.813 577.518 84.6437 598.587 92.3967C607.042 95.5037 612.029 104.232 619.617 109.097C630.331 115.915 644.27 114.152 656.517 110.782C663.335 108.922 670.456 106.652 677.167 108.717C678.154 109.154 679.243 109.309 680.313 109.165C681.774 108.746 682.495 107.129 682.972 105.688C686.319 95.5645 687.798 84.9169 687.336 74.2646C687.049 82.5259 685.58 90.7034 682.972 98.5477Z" fill="black"/>
</svg>
