<svg width="1321" height="703" viewBox="0 0 1321 703" fill="none" xmlns="http://www.w3.org/2000/svg">
<path d="M1219.17 555.618C1217.7 558.788 1216.23 561.915 1214.77 565.001C1212.49 569.794 1210.23 574.494 1208.01 579.101C1207.02 581.143 1206.03 583.146 1205.07 585.149C1194.16 607.428 1183.98 627.133 1175.33 643.339C1159.35 673.247 1128.44 701.648 1094.53 701.999H530.999L443.467 699.386H443.367L386.623 699.995H386.014L206.588 701.935L152.912 702.518C141.458 702.647 130.052 701.013 119.094 697.674C100.026 691.913 82.889 681.063 69.5274 666.29C46.4744 640.89 29.6734 611.258 18.3874 579.1C16.7561 574.459 15.2344 569.759 13.8224 565C-25.2496 432.936 22.3804 262.555 108.099 148.53C111.692 143.762 115.344 139.112 119.055 134.582L119.144 134.482C145.506 102.122 175.064 75.0876 206.549 55.8636C262.342 21.7406 324.158 12.1296 384.96 40.7736C436.404 65.0186 484.437 76.4176 530.999 79.5116C535.699 79.8116 540.408 80.0446 545.087 80.1836C651.893 83.5436 751.987 45.0596 869.537 20.2186C874.216 19.2296 878.908 18.2536 883.637 17.3276C967.491 0.640593 1060.51 -8.15941 1171.14 10.3406C1182.63 12.218 1193.97 14.9302 1205.07 18.4556C1209.95 20.0283 1214.65 21.7189 1219.17 23.5276C1271.97 45.0076 1300.77 84.6976 1313 134.428C1314.16 139.043 1315.16 143.739 1316.01 148.516C1337.71 268.143 1274.16 437.831 1219.17 555.618Z" fill="url(#paint0_linear_1_110)"/>
<path d="M1094.43 676.638V693.122L901.786 694.897L899.732 694.935L826.516 695.607L824.766 695.632L802.512 695.822H801.853L666.199 697.077L443.518 699.149H443.328L386.711 699.682L386.102 699.695L134.525 701.998V682.978L193.678 647.478L312.365 646.489L314.901 646.476L315.738 646.463L318.274 646.425L375.259 645.956L377.808 645.943L378.62 645.93L381.156 645.917L399.425 645.761L399.907 645.748L444.985 645.368H445.353L797.104 642.401L805.714 642.338H806.576L813.144 642.275L860.885 641.882L863.421 641.844L865.767 641.819H866.984L881.833 641.705L884.775 641.667L888.719 641.642L901.082 641.528L920.698 641.363L923.234 641.338L927.647 641.313H928.471L1023.21 640.501L1094.43 676.638Z" fill="#65617D"/>
<path opacity="0.2" d="M1094.43 676.638V693.122L901.786 694.897L899.732 694.935L826.516 695.607L824.766 695.632L802.512 695.822H801.853L666.199 697.077L443.518 699.149H443.328L386.711 699.682L386.102 699.695L134.525 701.998V682.978L193.678 647.478L312.365 646.489L314.901 646.476L315.738 646.463L318.274 646.425L375.259 645.956L377.808 645.943L378.62 645.93L381.156 645.917L399.425 645.761L399.907 645.748L444.985 645.368H445.353L797.104 642.401L805.714 642.338H806.576L813.144 642.275L860.885 641.882L863.421 641.844L865.767 641.819H866.984L881.833 641.705L884.775 641.667L888.719 641.642L901.082 641.528L920.698 641.363L923.234 641.338L927.647 641.313H928.471L1023.21 640.501L1094.43 676.638Z" fill="black"/>
<path d="M375.45 613.249V644.303C375.451 645.773 375.035 647.214 374.249 648.458C373.463 649.701 372.341 650.696 371.012 651.328C370.023 651.807 368.942 652.067 367.842 652.089L323.588 653.027C322.406 653.055 321.234 652.807 320.164 652.304C318.812 651.684 317.667 650.689 316.864 649.437C316.062 648.184 315.636 646.728 315.637 645.241V613.249H375.45Z" fill="#3F3D56"/>
<path opacity="0.1" d="M375.45 613.249V644.303C375.451 645.773 375.035 647.214 374.249 648.458C373.463 649.701 372.341 650.696 371.012 651.328C370.023 651.807 368.942 652.067 367.842 652.089L323.588 653.027C322.406 653.055 321.234 652.807 320.164 652.304C318.812 651.684 317.667 650.689 316.864 649.437C316.062 648.184 315.636 646.728 315.637 645.241V613.249H375.45Z" fill="black"/>
<path d="M377.986 613.249V644.303C377.987 645.773 377.57 647.214 376.785 648.458C375.999 649.701 374.877 650.696 373.548 651.328C372.559 651.807 371.478 652.067 370.378 652.089L326.124 653.027C324.942 653.055 323.77 652.807 322.7 652.304C321.348 651.684 320.203 650.689 319.4 649.437C318.598 648.184 318.172 646.728 318.173 645.241V613.249H377.986Z" fill="#3F3D56"/>
<path d="M923.238 613.249H863.425V653.192H923.238V613.249Z" fill="#3F3D56"/>
<path opacity="0.1" d="M923.238 613.249H863.425V653.192H923.238V613.249Z" fill="black"/>
<path d="M920.702 613.249H860.889V653.192H920.702V613.249Z" fill="#3F3D56"/>
<path opacity="0.1" d="M292.395 388.492H268.302V410.15H292.395V388.492Z" fill="black"/>
<path opacity="0.1" d="M377.986 613.237V619.537L318.173 621.137V613.237H377.986Z" fill="black"/>
<path d="M483.549 396.037V609.319C483.534 610.621 483.019 611.867 482.11 612.799C481.201 613.732 479.969 614.279 478.667 614.328L235.65 620.795H235.588C234.265 620.778 233 620.245 232.065 619.309C231.129 618.374 230.596 617.109 230.579 615.786V396.037C230.596 394.713 231.129 393.449 232.065 392.513C233 391.577 234.265 391.044 235.588 391.028H478.541C479.865 391.044 481.129 391.577 482.065 392.513C483 393.449 483.533 394.713 483.549 396.037Z" fill="#65617D"/>
<path opacity="0.1" d="M235.65 391.028V620.794H235.588C234.265 620.777 233 620.244 232.065 619.308C231.129 618.373 230.596 617.108 230.579 615.785V396.037C230.596 394.713 231.129 393.449 232.065 392.513C233 391.577 234.265 391.044 235.588 391.028H235.65Z" fill="black"/>
<path d="M246.745 404.646H471.82V592.631L246.745 597.703V404.646Z" fill="#D4DFEC"/>
<path opacity="0.1" d="M940.775 388.492H916.682V410.581H940.775V388.492Z" fill="black"/>
<path opacity="0.1" d="M920.702 613.237V621.365L860.889 619.765V613.235L920.702 613.237Z" fill="black"/>
<path d="M999.636 396.037V615.786C999.62 617.12 999.078 618.394 998.129 619.331C997.179 620.269 995.899 620.795 994.564 620.795L751.496 614.328C750.195 614.279 748.963 613.732 748.054 612.799C747.145 611.867 746.63 610.621 746.615 609.319V396.037C746.631 394.713 747.164 393.449 748.1 392.513C749.036 391.577 750.3 391.044 751.623 391.028H994.577C995.91 391.031 997.187 391.558 998.133 392.495C999.08 393.433 999.62 394.705 999.636 396.037Z" fill="#65617D"/>
<path opacity="0.1" d="M999.636 396.037V615.786C999.62 617.12 999.078 618.394 998.129 619.331C997.179 620.269 995.899 620.795 994.564 620.795V391.028C995.899 391.028 997.179 391.553 998.129 392.491C999.078 393.428 999.62 394.702 999.636 396.037Z" fill="black"/>
<path d="M983.469 404.646H758.394V592.631L983.469 597.703V404.646Z" fill="#D4DFEC"/>
<path d="M740.324 396.037V609.319C740.309 610.621 739.794 611.867 738.885 612.799C737.976 613.732 736.744 614.279 735.442 614.328L492.425 620.795C491.091 620.795 489.81 620.269 488.861 619.331C487.912 618.394 487.37 617.12 487.353 615.786V396.037C487.37 394.713 487.903 393.449 488.839 392.513C489.774 391.577 491.039 391.044 492.362 391.028H735.316C736.64 391.044 737.904 391.577 738.84 392.513C739.775 393.449 740.308 394.713 740.324 396.037Z" fill="#65617D"/>
<path d="M503.521 404.646H728.596V592.631L503.521 597.703V404.646Z" fill="#D4DFEC"/>
<path opacity="0.1" d="M1094.43 676.638V693.122L901.783 694.898L899.729 694.936L826.513 695.608L824.763 695.633L802.509 695.823H801.85L666.196 697.078L443.518 699.145H443.328L386.711 699.678L386.102 699.691L134.525 701.999V682.978L391.313 681.288H391.922L443.898 680.933H444.139L803.092 678.562H803.46L803.676 678.549H804.276L810.35 678.511H812.201L906.656 677.877L912.235 677.852L913.478 677.839L1094.43 676.638Z" fill="black"/>
<path d="M617.846 410.15C653.794 410.15 682.934 381.009 682.934 345.062C682.934 309.114 653.794 279.974 617.846 279.974C581.899 279.974 552.758 309.114 552.758 345.062C552.758 381.009 581.899 410.15 617.846 410.15Z" fill="#FBBEBE"/>
<path d="M385.974 700.135C385.995 699.981 386.037 699.832 386.101 699.691C387.369 695.139 389.626 687.442 391.313 681.291C391.529 680.53 391.731 679.782 391.922 679.072C393.786 672.136 397.413 655.892 399.429 645.761C400.139 642.198 400.697 639.421 400.811 638.026C401.065 635.883 404.881 626.715 409.205 616.178C412.236 608.773 415.545 600.678 417.967 593.861C419.553 589.808 420.795 585.63 421.682 581.371C421.872 580.481 421.872 579.561 421.682 578.671C421.302 577.221 421.097 575.731 421.073 574.233C420.781 566.371 423.127 553.945 426.754 548.733C431.192 542.393 434.362 518.733 434.362 518.733C434.362 518.733 440.93 519.684 441.97 514.257C442.08 513.672 442.123 513.076 442.097 512.482C442.095 512.01 442.057 511.54 441.983 511.075C440.854 503.163 460.648 494.743 471.783 492.93C473.039 492.714 474.309 492.596 475.583 492.575C478.288 492.28 480.948 491.667 483.508 490.749C484.692 490.385 485.958 489.963 487.308 489.481C491.974 487.909 497.554 485.829 503.475 483.547C525.742 474.912 552.7 463.259 552.7 463.259C552.89 462.359 553.106 461.496 553.347 460.647C554.68 455.301 557.25 450.344 560.852 446.174C564.453 442.005 568.984 438.742 574.079 436.647V434.111C574.079 429.736 573.889 425.235 573.699 420.746C573.699 419.871 573.623 418.996 573.572 418.121V416.68C573.572 415.792 573.483 414.905 573.433 414.03L573.205 413.853C571.257 412.381 569.583 410.578 568.26 408.527C567.524 407.329 566.921 406.055 566.46 404.727C564.875 400.427 564.507 395.635 563.442 391.096L563.214 390.158C561.827 385.577 560.133 381.095 558.142 376.742C555.342 369.869 553.184 362.794 551.042 355.629C549.74 351.292 548.426 346.947 547.098 342.594L545.098 335.95C544.718 334.682 544.337 333.414 544.046 332.15C543.905 331.564 543.795 330.972 543.716 330.375C543.359 328.429 543.462 326.427 544.016 324.529C544.509 323.234 545.068 321.966 545.69 320.729C545.956 320.166 546.168 319.58 546.324 318.979C546.365 318.845 546.398 318.71 546.424 318.573C546.515 318.121 546.562 317.663 546.564 317.203C546.521 315.54 546.3 313.886 545.905 312.27C545.898 312.249 545.898 312.227 545.905 312.207C545.891 312.092 545.869 311.977 545.842 311.865C545.615 310.608 545.463 309.339 545.386 308.065C544.94 301.199 546.467 294.348 549.786 288.322L550.027 287.866C550.726 286.64 551.506 285.463 552.36 284.341C552.754 283.802 553.177 283.285 553.628 282.794C551.853 284.494 548.936 283.745 547.288 281.919C547.015 281.633 546.78 281.313 546.588 280.968C546.479 280.784 546.381 280.593 546.296 280.397C546.233 280.245 546.182 280.08 546.131 279.915C545.243 276.808 546.79 273.499 548.819 270.975C550.818 268.517 553.294 266.489 556.097 265.015C556.261 264.916 556.43 264.827 556.604 264.749C557.681 264.208 558.801 263.759 559.952 263.405C560.63 263.18 561.32 262.994 562.019 262.847L557.319 262.416L555.419 262.238C556.364 258.492 558.465 255.138 561.424 252.655C564.383 250.171 568.05 248.684 571.903 248.404H573.272C573.939 248.414 574.604 248.469 575.263 248.569C574.209 248.107 573.322 247.332 572.721 246.351C572.12 245.369 571.835 244.227 571.903 243.078C575.224 245.677 579.341 247.048 583.556 246.958H584.038C583.819 245.585 583.675 244.2 583.607 242.812C583.48 240.929 583.48 239.039 583.607 237.157C584.744 238.235 586.103 239.05 587.589 239.545C589.075 240.041 590.652 240.203 592.207 240.023L589.569 236.346C591.92 238.221 594.887 239.149 597.887 238.946L598.496 238.883C599.007 238.829 599.512 238.731 600.005 238.591H600.119C599.878 238.291 599.663 237.97 599.447 237.64L599.371 237.488C598.844 236.658 598.418 235.769 598.103 234.838C597.978 234.478 597.878 234.111 597.803 233.738C597.251 231.432 597.451 229.01 598.374 226.827C602.474 230.251 606.959 234.927 612.322 231.392C617.685 227.857 617.863 221.362 626.27 222.021C628.581 222.239 630.79 223.074 632.666 224.439C634.542 225.805 636.016 227.649 636.934 229.781C638.12 228.44 639.696 227.506 641.441 227.108C643.185 226.71 645.011 226.868 646.66 227.562C648.283 228.331 649.627 229.584 650.508 231.148C651.389 232.713 651.764 234.512 651.58 236.299C655.067 235.424 658.82 234.562 662.168 235.881C665.516 237.2 667.668 241.473 665.768 244.326C665.716 244.415 665.657 244.5 665.59 244.58C664.03 246.596 660.581 247.699 660.949 250.235L661.482 250.615L663.13 251.807C669.597 256.473 675.895 261.376 682.024 266.516C685.169 269.153 688.516 272.324 688.732 276.445C688.772 277.455 688.671 278.467 688.432 279.45C688.232 280.439 687.95 281.428 687.732 282.417C687.19 284.936 687.045 287.524 687.301 290.089C687.39 290.837 687.501 291.573 687.643 292.321C689.583 302.121 697.42 310.213 698.193 320.221V320.931C698.24 322.001 698.21 323.073 698.104 324.139C697.521 330.225 694.704 336.071 692.423 341.891C692.284 342.246 692.144 342.601 692.017 342.956C687.617 354.368 685.081 366.529 683.141 378.664C682.516 382.969 681.669 387.239 680.605 391.458C679.449 396.285 677.245 400.8 674.151 404.683C672.915 406.141 671.48 407.42 669.89 408.483C668.82 409.168 667.697 409.766 666.53 410.271V410.347C666.669 411.12 666.784 411.894 666.923 412.667C666.999 413.073 667.062 413.479 667.139 413.935C667.134 413.96 667.134 413.986 667.139 414.011C668.204 420.011 669.421 425.88 670.702 431.459L671.349 434.236C687.326 440.005 689.216 451.824 689.33 456.35C689.375 456.953 689.375 457.559 689.33 458.163C689.33 458.163 713.423 458.797 722.93 465.771C724.708 466.977 726.629 467.957 728.649 468.688C732.484 470.136 736.401 471.36 740.378 472.352C742.42 472.885 744.55 473.405 746.718 473.912C750.518 474.787 754.554 475.636 758.447 476.448C768.832 478.54 778.609 480.248 783.567 481.52C795.398 484.513 822.457 510.456 822.457 510.456C822.457 510.456 825.627 536.628 828.797 540.445C831.967 544.262 837.673 557.678 837.673 557.678L858.646 594.971L867.522 610.656H873.228C874.014 610.656 875.561 611.772 877.298 613.319C878.807 614.663 880.481 616.337 881.952 617.859L884.387 620.459L885.909 622.145C885.909 622.145 895.128 622.373 897.626 629.664C905.133 629.448 914.351 629.943 920.806 632.834C921.687 633.221 922.535 633.68 923.342 634.204C924.666 634.97 925.815 636.005 926.717 637.24C927.619 638.476 928.253 639.886 928.579 641.381C928.708 641.982 928.784 642.592 928.807 643.207C928.807 643.93 928.807 644.653 928.807 645.363C928.351 654.963 922.099 662.951 916.355 668.327L916.761 669.05C916.761 669.05 916.571 669.506 916.203 670.318C916.103 670.559 915.975 670.825 915.835 671.13C915.087 672.73 913.895 675.124 912.335 677.93C909.026 683.995 904.947 689.608 900.2 694.63L899.832 695.01L826.616 695.682L826.4 695.428L812.2 678.487L805.137 670.067L804.921 669.801L804.721 671.817L804.036 678.538L802.388 694.781L802.299 695.593V695.809L802.109 697.686L802.248 695.809H801.88L666.201 697.077L443.51 699.537V700.602H443.332V699.537L386.588 700.146L385.974 700.135Z" fill="url(#paint1_linear_1_110)"/>
<path d="M682.947 478.204C682.947 478.204 556.778 493.42 568.825 478.204C573.187 472.704 574.392 456.394 574.151 437.817C574.075 432.174 573.872 426.329 573.58 420.508C572.185 392.608 568.825 365.349 568.825 365.349C568.825 365.349 679.143 313.36 666.463 354.571C661.391 371.22 663.052 394.603 666.907 416.552C668.036 422.952 669.342 429.232 670.707 435.192C674.05 449.728 678.134 464.084 682.944 478.204H682.947Z" fill="#FBBEBE"/>
<path opacity="0.1" d="M682.947 478.206C682.947 478.206 556.778 493.422 568.825 478.206C573.187 472.706 574.392 456.396 574.151 437.819C593.387 429.602 617.86 435.727 617.86 435.727C643.626 430.592 660.149 431.593 670.711 435.194C674.053 449.73 678.137 464.086 682.947 478.206Z" fill="black"/>
<path d="M443.467 700.578V699.513L666.158 697.091L801.837 695.823H802.217L802.078 697.7L802.268 695.823H802.509V695.607L804.25 678.553L804.909 672.099L805.109 670.083L805.286 668.396L813.122 642.262L820.958 616.162L827.552 594.187L837.62 560.61C837.62 560.61 831.914 547.296 828.744 543.492C825.574 539.688 822.404 513.692 822.404 513.692C822.404 513.692 795.344 487.913 783.514 484.946C778.556 483.678 768.767 481.992 758.369 479.874C754.476 479.088 750.482 478.251 746.64 477.338C744.472 476.843 742.34 476.324 740.3 475.804C736.327 474.811 732.412 473.6 728.571 472.177C726.558 471.446 724.642 470.472 722.865 469.277C713.545 462.442 690.188 461.669 689.288 461.669C689.286 461.639 689.286 461.609 689.288 461.58V461.466C689.321 460.933 689.321 460.398 689.288 459.866C689.302 459.272 689.264 458.678 689.174 458.091C689.188 457.875 689.157 457.66 689.085 457.457C689.022 457 688.946 456.519 688.831 456.011C688.793 455.784 688.742 455.56 688.679 455.339C688.312 453.811 687.781 452.327 687.094 450.914C687.005 450.714 686.894 450.495 686.794 450.293C686.173 449.121 685.451 448.005 684.638 446.958C684.473 446.743 684.296 446.514 684.106 446.299C683.068 445.074 681.913 443.952 680.657 442.951C680.315 442.685 679.957 442.406 679.592 442.151C679.387 441.984 679.171 441.832 678.945 441.695L677.816 440.959L676.764 440.35C675.838 439.843 674.864 439.35 673.797 438.879C673.467 438.727 673.112 438.587 672.757 438.448C672.402 438.309 671.844 438.093 671.375 437.915H671.299L670.348 437.535C669.625 437.294 668.89 437.079 668.116 436.863L666.937 436.563L665.669 436.271L664.401 436.005C663.133 435.751 661.776 435.523 660.356 435.346L658.91 435.169L657.426 435.017L655.892 434.89L653.711 434.763L651.175 434.674C639.985 434.673 628.827 435.86 617.887 438.215C610.296 436.524 602.52 435.808 594.747 436.082H593.647L592.379 436.158H591.567L589.931 436.31C589.378 436.335 588.828 436.399 588.283 436.5C587.738 436.576 587.167 436.64 586.622 436.728L585.785 436.868C584.961 437.007 584.124 437.16 583.249 437.337C582.971 437.387 582.692 437.451 582.412 437.527C581.312 437.768 580.206 438.06 579.112 438.389C578.567 438.541 578.022 438.719 577.476 438.909C577.197 438.985 576.931 439.086 576.664 439.188L575.852 439.48L575.052 439.797L574.101 440.177C573.619 440.377 573.15 440.595 572.681 440.824C572.415 440.938 572.149 441.065 571.895 441.204C571.641 441.343 571.375 441.458 571.134 441.597C568.267 443.078 565.617 444.947 563.259 447.151L562.612 447.772L561.978 448.419C561.763 448.635 561.56 448.863 561.357 449.091C560.531 449.994 559.76 450.947 559.049 451.944C558.849 452.21 558.656 452.476 558.466 452.756C557.662 453.941 556.933 455.177 556.285 456.456C556.12 456.756 555.968 457.077 555.816 457.382C554.782 459.524 553.933 461.751 553.28 464.039C553.044 464.884 552.828 465.729 552.633 466.575C552.633 466.575 525.789 478.419 503.522 486.99C497.6 489.272 492.022 491.339 487.355 492.899C485.998 493.355 484.73 493.774 483.555 494.167C480.997 495.091 478.336 495.705 475.63 495.993C474.357 496.014 473.086 496.132 471.83 496.348C461.597 498.009 444.06 505.224 442.146 512.465C441.991 513.043 441.948 513.645 442.019 514.24C442.019 514.24 442.019 514.329 442.019 514.38C443.287 523.256 434.411 521.988 434.411 521.988C434.411 521.988 431.241 545.446 426.803 551.788C423.595 556.353 421.403 566.535 421.122 574.219C420.963 576.613 421.151 579.017 421.68 581.358V581.535C422.187 583.235 420.97 587.875 418.903 593.822C416.659 600.352 413.387 608.468 410.242 616.122C405.5 627.686 401.036 638.186 400.757 640.493C400.643 641.52 400.313 643.359 399.857 645.73C398.006 655.392 393.897 673.792 391.868 681.23C390.359 686.784 388.168 694.392 386.656 699.616C386.634 699.768 386.591 699.918 386.529 700.06L443.375 699.502V700.567H443.553L443.467 700.578Z" fill="#4C4981"/>
<path opacity="0.1" d="M464.212 551.116C464.212 551.116 536.489 588.523 562.484 584.085L464.212 551.116Z" fill="black"/>
<path opacity="0.1" d="M611.303 535.9C611.303 535.9 681.678 558.725 705.137 561.895C728.596 565.065 611.303 535.9 611.303 535.9Z" fill="black"/>
<path opacity="0.1" d="M689.362 462.456C652.589 469.227 583.355 467.769 553.43 466.742C564.398 427.433 617.884 440.798 617.884 440.798C684.088 427.585 689.16 455 689.362 462.456Z" fill="black"/>
<path d="M689.362 459.92C652.589 466.691 583.355 465.233 553.43 464.206C564.398 424.897 617.884 438.262 617.884 438.262C684.088 425.049 689.16 452.464 689.362 459.92Z" fill="#4C4981"/>
<path d="M884.563 633.221C884.563 633.221 927.879 626.564 928.728 645.584C929.577 664.604 906.639 677.893 906.639 677.893L884.563 633.221Z" fill="#FBBEBE"/>
<path opacity="0.1" d="M666.906 416.553C665.043 417.385 663.139 418.121 661.2 418.759C647.531 423.476 633.747 428.231 619.355 429.959C604.963 431.687 589.861 430.159 577.307 422.985C575.991 422.24 574.722 421.414 573.507 420.512C572.112 392.612 568.752 365.353 568.752 365.353C568.752 365.353 679.07 313.364 666.39 354.575C661.339 371.221 663.051 394.604 666.906 416.553Z" fill="black"/>
<path d="M599.993 243.328C598.184 243.806 596.287 243.854 594.455 243.469C592.624 243.083 590.907 242.275 589.443 241.109L592.081 244.774C590.527 244.953 588.951 244.791 587.466 244.298C585.98 243.806 584.62 242.994 583.481 241.921C583.242 245.201 583.379 248.498 583.887 251.748C579.524 251.959 575.227 250.612 571.765 247.948C571.697 249.092 571.982 250.229 572.58 251.206C573.179 252.184 574.063 252.954 575.113 253.413C570.729 252.889 566.305 253.978 562.665 256.477C559.025 258.976 556.419 262.714 555.332 266.994L561.951 267.603C556.75 268.714 552.081 271.562 548.713 275.68C546.684 278.216 545.137 281.462 546.025 284.556C546.913 287.65 551.199 289.628 553.532 287.422C550.213 291.383 547.801 296.023 546.465 301.015C545.128 306.008 544.901 311.232 545.797 316.322C546.399 318.49 546.597 320.751 546.38 322.992C545.962 325.084 544.643 326.897 543.98 328.939C542.712 332.639 543.917 336.661 545.045 340.351L550.992 359.904C553.148 366.967 555.292 374.042 558.106 380.877C560.1 385.198 561.794 389.651 563.178 394.204C564.778 400.341 564.839 407.062 568.25 412.425C570.587 415.8 573.71 418.555 577.35 420.452C589.891 427.629 605.044 429.152 619.398 427.426C633.752 425.7 647.523 420.946 661.179 416.226C664.213 415.313 667.125 414.037 669.852 412.426C679.299 406.238 681.404 393.583 683.166 382.437C685.14 370.007 687.765 357.607 692.419 345.907C695.183 338.946 698.759 331.883 698.151 324.427C697.377 314.527 689.541 306.497 687.601 296.759C686.952 293.503 686.982 290.149 687.69 286.906C688.292 284.973 688.628 282.968 688.69 280.946C688.474 276.863 685.127 273.718 681.982 271.093C675.16 265.395 668.119 260.01 660.857 254.938C660.489 252.402 663.938 251.311 665.498 249.308C667.704 246.48 665.422 241.992 662.074 240.673C658.726 239.354 654.974 240.217 651.486 241.091C651.714 239.306 651.359 237.495 650.475 235.927C649.591 234.36 648.224 233.12 646.578 232.392C644.933 231.664 643.096 231.487 641.341 231.886C639.587 232.286 638.008 233.242 636.84 234.611C635.914 232.487 634.435 230.651 632.557 229.295C630.678 227.939 628.47 227.112 626.163 226.901C617.756 226.242 617.591 232.671 612.215 236.208C606.839 239.745 602.4 235.079 598.267 231.681C597.507 233.603 597.266 235.691 597.569 237.736C597.872 239.78 598.708 241.709 599.993 243.328Z" fill="#3F3D56"/>
<path d="M916.682 671.262C916.682 671.262 915.553 673.95 913.474 677.843C910.329 683.832 906.499 689.436 902.062 694.543L901.72 694.911H899.665L826.449 695.583H824.699L824.483 695.329L810.283 678.477L804.932 672.124L804.716 671.858L804.26 671.325L804.006 671.025L803.676 670.632L793.265 658.277L797.065 642.427L803.545 615.727L803.71 615.08L804.978 610.008L805.878 606.208L808.896 593.808L819.243 551.139L837.629 560.649L857.025 594.876L867.436 613.262H873.142C874.22 613.262 876.692 615.342 879.178 617.738C880.066 618.588 880.953 619.488 881.714 620.274C883.971 622.607 885.759 624.611 885.759 624.611C885.759 624.611 895.003 624.811 897.488 632.092C897.617 632.444 897.723 632.804 897.805 633.17C898.63 636.03 899.704 638.814 901.013 641.488C902.649 645.051 904.703 649.096 906.782 653.141C910.649 660.559 914.582 667.622 916.026 670.183L916.204 670.5L916.682 671.262Z" fill="#4C4981"/>
<path opacity="0.1" d="M807.757 614.01L807.63 615.823V615.95L807.414 618.866L805.727 642.337L803.685 670.614L803.102 678.577L801.836 695.621V695.837L666.157 697.104L443.504 699.513V700.578H443.326V699.158L443.897 680.949L444.988 645.368L445.926 615.202L446.015 612.197C446.07 610.382 446.494 608.598 447.262 606.954C448.03 605.309 449.125 603.838 450.48 602.63C451.835 601.423 453.423 600.505 455.145 599.932C456.867 599.358 458.688 599.142 460.496 599.297C466.481 599.804 474.254 600.426 483.549 601.085L487.349 601.364C541.025 605.092 640.222 609.91 740.32 603.9C742.42 603.786 744.543 603.659 746.66 603.507C762.181 602.531 777.689 601.275 793.044 599.707C794.986 599.503 796.948 599.728 798.793 600.365C800.638 601.002 802.321 602.035 803.723 603.393C805.125 604.751 806.213 606.399 806.909 608.222C807.606 610.046 807.894 612 807.753 613.947L807.757 614.01Z" fill="black"/>
<path d="M443.467 700.578V699.513L666.158 697.091L801.837 695.823H802.217V695.607L803.485 678.565L804.03 670.957L806.11 642.287L807.746 619.587V619.029C807.822 617.983 807.776 616.932 807.607 615.897C807.614 615.855 807.614 615.812 807.607 615.77C807.259 613.63 806.388 611.608 805.071 609.886C803.675 608.095 801.846 606.69 799.756 605.803C797.666 604.915 795.384 604.575 793.126 604.814C777.77 606.386 762.262 607.642 746.742 608.614C744.624 608.766 742.507 608.893 740.402 609.007C640.302 614.954 541.102 610.136 487.431 606.471L483.631 606.192C474.336 605.533 466.563 604.924 460.578 604.404C457.286 604.126 454.007 605.077 451.375 607.075C448.743 609.072 446.944 611.974 446.325 615.22C446.197 615.906 446.121 616.602 446.097 617.3L445.235 645.4L444.05 681.001L443.492 699.21V700.63L443.467 700.578Z" fill="#3F3D56"/>
<path opacity="0.1" d="M808.139 622.899L806.579 642.338L804.259 671.316L803.676 678.569L802.408 694.812L802.332 695.624V695.84L802.142 697.717L802.281 695.84H801.913L666.234 697.108L443.505 699.516V699.161L444.126 680.952L445.395 645.369L446.207 621.72C446.247 620.374 446.623 619.061 447.301 617.898C447.979 616.735 448.937 615.76 450.087 615.063C451.523 614.183 453.202 613.783 454.88 613.922C457.543 614.138 460.814 614.391 464.631 614.67C470.831 615.126 478.478 615.659 487.379 616.217C503.863 617.257 524.545 618.373 548.244 619.286C614.181 621.822 703.197 622.672 787.744 615.266C791.544 614.936 795.479 614.566 799.321 614.201C800.842 614.049 802.375 614.34 803.734 615.038C804.12 615.229 804.485 615.459 804.825 615.723C805.929 616.522 806.804 617.598 807.361 618.842C807.491 619.089 807.597 619.348 807.678 619.615C808.061 620.665 808.218 621.784 808.139 622.899Z" fill="black"/>
<path opacity="0.1" d="M377.986 640.258V644.303C377.987 645.773 377.57 647.214 376.785 648.458C375.999 649.701 374.877 650.696 373.548 651.328L322.7 652.304C321.348 651.684 320.203 650.689 319.4 649.437C318.598 648.184 318.172 646.728 318.173 645.241V641.441L377.986 640.258Z" fill="black"/>
<path d="M378.616 653.712L312.362 654.98V643.986L378.616 642.718V653.712Z" fill="#3F3D56"/>
<path opacity="0.1" d="M378.616 653.712L312.362 654.98V643.986L378.616 642.718V653.712Z" fill="black"/>
<path d="M381.152 653.712L314.898 654.98V643.986L381.152 642.718V653.712Z" fill="#3F3D56"/>
<g opacity="0.1">
<path d="M600.512 239.169C599.273 237.56 598.449 235.671 598.112 233.669C597.807 235.627 597.99 237.631 598.645 239.502C599.276 239.443 599.9 239.331 600.512 239.169Z" fill="black"/>
<path d="M584.408 247.589C584.169 246.034 584.013 244.468 583.939 242.897C583.939 244.457 583.939 246.029 583.939 247.597L584.408 247.589Z" fill="black"/>
<path d="M687.752 289.903C687.822 288.773 687.975 287.65 688.208 286.543C688.808 284.614 689.15 282.614 689.223 280.596C689.196 280.143 689.129 279.693 689.023 279.252C688.808 280.419 688.465 281.585 688.212 282.739C687.706 285.091 687.552 287.505 687.756 289.903H687.752Z" fill="black"/>
<path d="M661.378 250.721L662.76 251.721C663.926 250.878 665.016 249.936 666.019 248.906C666.497 248.246 666.792 247.472 666.877 246.662C666.961 245.852 666.832 245.034 666.501 244.29C666.375 244.579 666.213 244.852 666.019 245.102C664.459 247.107 661.01 248.21 661.378 250.721Z" fill="black"/>
<path d="M557.183 262.919C556.722 263.844 556.353 264.812 556.083 265.81C558.067 264.701 560.203 263.892 562.423 263.41L557.183 262.919Z" fill="black"/>
<path d="M574.669 249.124C573.836 248.665 573.039 248.143 572.285 247.564C572.253 248.066 572.291 248.571 572.399 249.064C573.157 249.027 573.915 249.048 574.669 249.127V249.124Z" fill="black"/>
<path d="M698.645 323.835C698.125 329.985 695.259 335.907 692.939 341.735C688.285 353.426 685.66 365.828 683.695 378.267C681.932 389.413 679.895 402.067 670.381 408.243C667.664 409.865 664.754 411.141 661.72 412.043C648.051 416.773 634.267 421.515 619.875 423.243C605.483 424.971 590.381 423.459 577.827 416.281C574.189 414.381 571.067 411.627 568.727 408.255C565.341 402.891 565.278 396.171 563.655 390.033C562.271 385.475 560.577 381.018 558.583 376.693C555.783 369.871 553.625 362.745 551.483 355.732C549.497 349.214 547.514 342.692 545.536 336.166C544.885 334.202 544.402 332.188 544.091 330.143C543.596 333.389 544.56 336.787 545.536 339.97C547.514 346.503 549.497 353.025 551.483 359.536C553.626 366.599 555.783 373.674 558.583 380.497C560.577 384.822 562.271 389.279 563.655 393.837C565.255 399.974 565.316 406.695 568.727 412.059C571.066 415.431 574.189 418.186 577.827 420.086C590.38 427.263 605.521 428.772 619.875 427.047C634.229 425.322 648 420.58 661.72 415.847C664.754 414.945 667.664 413.669 670.381 412.047C679.828 405.872 681.933 393.217 683.695 382.071C685.66 369.632 688.285 357.23 692.939 345.539C695.703 338.59 699.279 331.527 698.671 324.059C698.671 323.987 698.645 323.911 698.645 323.835Z" fill="black"/>
<path d="M546.875 318.928V318.789C547.104 316.553 546.906 314.294 546.292 312.132C546.039 310.74 545.874 309.334 545.797 307.922C545.652 310.603 545.818 313.292 546.292 315.936C546.494 316.925 546.722 317.927 546.875 318.928Z" fill="black"/>
<path d="M550.742 287.912C551.718 286.273 552.825 284.717 554.052 283.258C551.732 285.477 547.446 283.499 546.545 280.418C546.214 281.663 546.214 282.973 546.545 284.218C546.858 285.148 547.411 285.98 548.148 286.628C548.886 287.276 549.782 287.718 550.745 287.908L550.742 287.912Z" fill="black"/>
</g>
<path opacity="0.1" d="M867.445 613.249C867.445 613.249 871.465 627.831 867.445 640.512C863.425 653.193 867.445 613.249 867.445 613.249Z" fill="black"/>
<path opacity="0.1" d="M884.563 628.122C884.563 628.122 886.249 646.635 882.445 649.922C878.641 653.209 884.563 628.122 884.563 628.122Z" fill="black"/>
<path d="M252.312 434.711L381.156 433.443" stroke="#34E89E" stroke-width="2" stroke-miterlimit="10"/>
<path d="M252.312 450.523L381.156 449.268" stroke="#34E89E" stroke-width="2" stroke-miterlimit="10"/>
<path d="M252.312 466.349L381.156 465.081" stroke="#34E89E" stroke-width="2" stroke-miterlimit="10"/>
<defs>
<linearGradient id="paint0_linear_1_110" x1="635.097" y1="-96.2458" x2="637.713" y2="966.69" gradientUnits="userSpaceOnUse">
<stop stop-color="#34E89E"/>
<stop offset="1" stop-color="#0F3443"/>
</linearGradient>
<linearGradient id="paint1_linear_1_110" x1="657.391" y1="700.602" x2="657.391" y2="221.495" gradientUnits="userSpaceOnUse">
<stop stop-color="#808080" stop-opacity="0.251"/>
<stop offset="0.54" stop-color="#808080" stop-opacity="0.122"/>
<stop offset="1" stop-color="#808080" stop-opacity="0.102"/>
</linearGradient>
</defs>
</svg>
